# xmcd
#
# Track frame offsets:
#	150
#	20382
#	34795
#	57765
#	73092
#	87585
#	102332
#	116880
#	131700
#	145530
#
# Disc length: 2235 seconds
#
# Revision: 1
# Processed by: cddbd v1.5.2PL0 Copyright (c) Steve Scherf et al.
# Submitted via: EZCDAudioConverter 7.1.2.1
#
DISCID=8c08b90a
DTITLE=Rufus Featuring Chaka Khan - Rufusized
DYEAR=1974
DGENRE=Soul - Funk
TTITLE0=Once You Get Started
TTITLE1=Somebody's Watching You
TTITLE2=Pack'd My Bags
TTITLE3=Your Smile
TTITLE4=Rufusized
TTITLE5=I'm A Woman (I'm A Backbone)
TTITLE6=Right Is Right
TTITLE7=Half Moon
TTITLE8=Please Pardon Me (You Remind Me Of A Friend)
TTITLE9=Stop On By
EXTD=
EXTT0=
EXTT1=
EXTT2=
EXTT3=
EXTT4=
EXTT5=
EXTT6=
EXTT7=
EXTT8=
EXTT9=
PLAYORDER=
